<svg xmlns="http://www.w3.org/2000/svg" width="200" height="200" viewBox="0 0 200 200">
  <defs>
    <linearGradient id="bg-er" x1="0%" y1="0%" x2="100%" y2="100%">
      <stop offset="0%" stop-color="#8E24AA"/>
      <stop offset="100%" stop-color="#6A1B9A"/>
    </linearGradient>
  </defs>
  <circle cx="100" cy="100" r="100" fill="url(#bg-er)"/>
  <!-- Dot pattern accent -->
  <circle cx="45" cy="40" r="3" fill="rgba(255,255,255,0.12)"/>
  <circle cx="70" cy="35" r="2.5" fill="rgba(255,255,255,0.10)"/>
  <circle cx="95" cy="32" r="2" fill="rgba(255,255,255,0.08)"/>
  <circle cx="120" cy="35" r="2.5" fill="rgba(255,255,255,0.10)"/>
  <circle cx="145" cy="40" r="3" fill="rgba(255,255,255,0.12)"/>
  <circle cx="160" cy="55" r="2" fill="rgba(255,255,255,0.08)"/>
  <circle cx="168" cy="75" r="2.5" fill="rgba(255,255,255,0.07)"/>
  <circle cx="170" cy="100" r="2" fill="rgba(255,255,255,0.06)"/>
  <circle cx="168" cy="125" r="2.5" fill="rgba(255,255,255,0.07)"/>
  <circle cx="160" cy="145" r="2" fill="rgba(255,255,255,0.08)"/>
  <circle cx="145" cy="160" r="3" fill="rgba(255,255,255,0.10)"/>
  <circle cx="120" cy="165" r="2.5" fill="rgba(255,255,255,0.08)"/>
  <circle cx="95" cy="168" r="2" fill="rgba(255,255,255,0.06)"/>
  <circle cx="70" cy="165" r="2.5" fill="rgba(255,255,255,0.08)"/>
  <circle cx="45" cy="160" r="3" fill="rgba(255,255,255,0.10)"/>
  <circle cx="35" cy="145" r="2" fill="rgba(255,255,255,0.08)"/>
  <circle cx="30" cy="125" r="2.5" fill="rgba(255,255,255,0.07)"/>
  <circle cx="28" cy="100" r="2" fill="rgba(255,255,255,0.06)"/>
  <circle cx="30" cy="75" r="2.5" fill="rgba(255,255,255,0.07)"/>
  <circle cx="35" cy="55" r="2" fill="rgba(255,255,255,0.08)"/>
  <!-- Inner glow ring -->
  <circle cx="100" cy="100" r="55" fill="rgba(255,255,255,0.03)" stroke="rgba(255,255,255,0.06)" stroke-width="0.8"/>
  <!-- Initials -->
  <text x="100" y="108" font-family="'Helvetica Neue', Arial, sans-serif" font-size="52" font-weight="700" fill="white" text-anchor="middle" dominant-baseline="middle" letter-spacing="2">ER</text>
</svg>