<svg xmlns="http://www.w3.org/2000/svg" width="200" height="200" viewBox="0 0 200 200">
  <defs>
    <linearGradient id="bg-rc" x1="0%" y1="0%" x2="100%" y2="100%">
      <stop offset="0%" stop-color="#3949AB"/>
      <stop offset="100%" stop-color="#5C1F9E"/>
    </linearGradient>
  </defs>
  <circle cx="100" cy="100" r="100" fill="url(#bg-rc)"/>
  <!-- Wave accents -->
  <path d="M 20 70 Q 50 50 80 70 Q 110 90 140 70 Q 170 50 190 70" fill="none" stroke="rgba(255,255,255,0.10)" stroke-width="1.5"/>
  <path d="M 10 90 Q 40 70 70 90 Q 100 110 130 90 Q 160 70 190 90" fill="none" stroke="rgba(255,255,255,0.07)" stroke-width="1"/>
  <path d="M 10 110 Q 40 90 70 110 Q 100 130 130 110 Q 160 90 190 110" fill="none" stroke="rgba(255,255,255,0.07)" stroke-width="1"/>
  <path d="M 20 130 Q 50 110 80 130 Q 110 150 140 130 Q 170 110 190 130" fill="none" stroke="rgba(255,255,255,0.05)" stroke-width="0.8"/>
  <!-- Initials -->
  <text x="100" y="108" font-family="'Helvetica Neue', Arial, sans-serif" font-size="52" font-weight="700" fill="white" text-anchor="middle" dominant-baseline="middle" letter-spacing="2">RC</text>
</svg>