<svg width="2120" height="1280" viewBox="0 0 2120 1280" fill="none" xmlns="http://www.w3.org/2000/svg">
<g filter="url(#filter0_d_4009_361)">
<path d="M100 240C100 146.112 176.112 70 270 70H1850C1943.89 70 2020 146.112 2020 240V980C2020 1073.89 1943.89 1150 1850 1150H270C176.112 1150 100 1073.89 100 980V240Z" fill="white"/>
<path d="M290.623 704.033V515.967H415.749V553.831H334.254V594.453H410.985V631.314H334.254V704.033H290.623Z" fill="black"/>
<path d="M442.936 704.033V515.967H487.32V704.033H442.936Z" fill="black"/>
<path d="M524.48 704.033V515.967H599.205C622.608 515.967 640.579 520.732 653.117 530.26C665.654 539.622 671.923 553.079 671.923 570.632C671.923 580.996 669.165 590.023 663.648 597.713C658.132 605.403 650.275 611.337 640.078 615.517C651.612 619.194 659.386 624.711 663.398 632.066C667.41 639.255 669.416 648.449 669.416 659.649V704.033H626.286V664.163C626.286 644.938 617.259 635.326 599.205 635.326H568.111V704.033H524.48ZM568.111 598.465H599.205C608.065 598.465 614.835 596.459 619.516 592.447C624.364 588.268 626.788 582.417 626.788 574.894C626.788 568.041 624.364 562.775 619.516 559.097C614.835 555.252 608.065 553.33 599.205 553.33H568.111V598.465Z" fill="black"/>
<path d="M775.404 707.794C760.693 707.794 747.32 705.286 735.284 700.271C723.415 695.256 713.886 687.984 706.698 678.456C699.677 668.76 696.166 656.891 696.166 642.849H740.8C741.636 652.21 745.147 659.148 751.332 663.661C757.517 668.175 765.207 670.432 774.401 670.432C783.428 670.432 790.867 668.843 796.718 665.667C802.569 662.491 805.495 658.061 805.495 652.377C805.495 647.529 803.739 643.935 800.229 641.595C796.718 639.255 791.369 636.998 784.181 634.825L744.06 623.039C736.203 620.699 728.764 617.773 721.743 614.263C714.722 610.585 709.038 605.57 704.692 599.218C700.512 592.865 698.423 584.256 698.423 573.39C698.423 560.852 701.432 550.07 707.45 541.043C713.468 531.848 721.994 524.744 733.027 519.729C744.06 514.714 757.016 512.206 771.894 512.206C793.458 512.206 810.927 517.472 824.301 528.004C837.842 538.535 845.615 553.497 847.621 572.888H802.486C798.975 557.007 788.193 549.067 770.138 549.067C761.445 549.067 754.759 550.739 750.078 554.082C745.564 557.425 743.308 561.939 743.308 567.623C743.308 571.802 744.729 575.312 747.57 578.154C750.412 580.996 754.926 583.336 761.111 585.175L802.987 597.713C819.035 602.394 830.737 608.83 838.092 617.021C845.448 625.212 849.126 635.911 849.126 649.118C849.126 660.819 846.033 671.1 839.848 679.96C833.83 688.653 825.304 695.507 814.271 700.522C803.238 705.37 790.282 707.794 775.404 707.794Z" fill="black"/>
<path d="M912.803 704.033V555.085H859.644V515.967H956.936V555.085V704.033H912.803Z" fill="black"/>
<path d="M975.979 704.033V555.085L975.979 515.967H1073.27V555.085H1020.11V704.033H975.979Z" fill="black"/>
<path d="M1171.64 707.794C1153.59 707.794 1137.87 703.865 1124.5 696.008C1111.29 687.984 1101.01 676.7 1093.66 662.157C1086.47 647.613 1082.88 630.311 1082.88 610.251C1082.88 590.19 1086.47 572.805 1093.66 558.094C1101.01 543.383 1111.29 532.099 1124.5 524.242C1137.87 516.218 1153.59 512.206 1171.64 512.206C1189.86 512.206 1205.58 516.218 1218.78 524.242C1231.99 532.099 1242.19 543.383 1249.38 558.094C1256.73 572.805 1260.41 590.19 1260.41 610.251C1260.41 630.311 1256.73 647.613 1249.38 662.157C1242.19 676.7 1231.99 687.984 1218.78 696.008C1205.58 703.865 1189.86 707.794 1171.64 707.794ZM1171.64 668.927C1185.02 668.927 1195.63 663.661 1203.49 653.13C1211.35 642.598 1215.27 628.305 1215.27 610.251C1215.27 592.029 1211.35 577.653 1203.49 567.121C1195.63 556.422 1185.02 551.073 1171.64 551.073C1158.27 551.073 1147.65 556.422 1139.8 567.121C1131.94 577.653 1128.01 592.029 1128.01 610.251C1128.01 628.305 1131.94 642.598 1139.8 653.13C1147.65 663.661 1158.27 668.927 1171.64 668.927Z" fill="black"/>
<path d="M1369.18 707.794C1353.13 707.794 1339 704.701 1326.8 698.516C1314.76 692.164 1305.32 683.304 1298.46 671.936C1291.78 660.401 1288.43 646.861 1288.43 631.314V515.967H1332.57V631.314C1332.57 643.183 1335.83 652.628 1342.35 659.649C1348.86 666.67 1357.64 670.181 1368.67 670.181C1380.04 670.181 1388.99 666.67 1395.5 659.649C1402.02 652.628 1405.28 643.183 1405.28 631.314V515.967H1449.42V631.314C1449.42 646.861 1445.99 660.401 1439.14 671.936C1432.45 683.304 1423.09 692.164 1411.05 698.516C1399.02 704.701 1385.06 707.794 1369.18 707.794Z" fill="black"/>
<path d="M1565.89 707.794C1547.67 707.794 1531.95 703.865 1518.75 696.008C1505.54 687.984 1495.34 676.7 1488.15 662.157C1480.97 647.446 1477.37 630.06 1477.37 610C1477.37 589.94 1480.88 572.638 1487.9 558.094C1495.09 543.383 1505.21 532.099 1518.24 524.242C1531.45 516.218 1546.91 512.206 1564.63 512.206C1580.52 512.206 1594.31 515.215 1606.01 521.233C1617.88 527.251 1627.16 535.61 1633.84 546.309C1640.53 557.007 1644.04 569.294 1644.37 583.169H1600.24C1598.9 573.808 1595.14 566.118 1588.96 560.1C1582.94 554.082 1575 551.073 1565.14 551.073C1551.93 551.073 1541.48 556.422 1533.79 567.121C1526.27 577.82 1522.51 592.196 1522.51 610.251C1522.51 627.971 1526.27 642.264 1533.79 653.13C1541.48 663.996 1552.35 669.429 1566.39 669.429C1574.41 669.429 1580.85 667.757 1585.7 664.413C1590.71 661.07 1594.47 656.724 1596.98 651.374C1599.49 645.858 1601.08 640.007 1601.75 633.822H1645.63C1644.96 649.368 1641.2 662.658 1634.34 673.691C1627.66 684.725 1618.46 693.167 1606.76 699.017C1595.23 704.868 1581.6 707.794 1565.89 707.794Z" fill="black"/>
<path d="M1674.66 704.033V515.967H1718.79V585.426H1785.24V515.967H1829.38V704.033H1785.24V624.544H1718.79V704.033H1674.66Z" fill="black"/>
<path d="M290.623 452.793H1044.82C1060.56 452.793 1073.32 465.55 1073.32 481.288V497.64H290.623V452.793Z" fill="url(#paint0_linear_4009_361)"/>
<path d="M912.762 722.36H1829.38V767.207H941.256C925.519 767.207 912.762 754.45 912.762 738.713V722.36Z" fill="url(#paint1_linear_4009_361)"/>
</g>
<defs>
<filter id="filter0_d_4009_361" x="0" y="0" width="2120" height="1280" filterUnits="userSpaceOnUse" color-interpolation-filters="sRGB">
<feFlood flood-opacity="0" result="BackgroundImageFix"/>
<feColorMatrix in="SourceAlpha" type="matrix" values="0 0 0 0 0 0 0 0 0 0 0 0 0 0 0 0 0 0 127 0" result="hardAlpha"/>
<feOffset dy="30"/>
<feGaussianBlur stdDeviation="50"/>
<feComposite in2="hardAlpha" operator="out"/>
<feColorMatrix type="matrix" values="0 0 0 0 0 0 0 0 0 0 0 0 0 0 0 0 0 0 0.25 0"/>
<feBlend mode="normal" in2="BackgroundImageFix" result="effect1_dropShadow_4009_361"/>
<feBlend mode="normal" in="SourceGraphic" in2="effect1_dropShadow_4009_361" result="shape"/>
</filter>
<linearGradient id="paint0_linear_4009_361" x1="1073.32" y1="475.216" x2="290.623" y2="475.216" gradientUnits="userSpaceOnUse">
<stop stop-color="#9301BB"/>
<stop offset="0.6" stop-color="#FF6A00"/>
<stop offset="1" stop-color="#FF6A00" stop-opacity="0"/>
</linearGradient>
<linearGradient id="paint1_linear_4009_361" x1="1829.38" y1="744.784" x2="912.762" y2="744.784" gradientUnits="userSpaceOnUse">
<stop stop-color="#FF6A00" stop-opacity="0"/>
<stop offset="0.4" stop-color="#FF6A00"/>
<stop offset="1" stop-color="#9301BB"/>
</linearGradient>
</defs>
</svg>
