<svg width="1280" height="1280" viewBox="0 0 1280 1280" fill="none" xmlns="http://www.w3.org/2000/svg">
<g filter="url(#filter0_d_4009_423)">
<rect x="100" y="70" width="1080" height="1080" rx="200" fill="url(#paint0_linear_4009_423)"/>
<path d="M496.799 860.865V463.496H354.978V359.137H614.538V463.496V860.865H496.799Z" fill="white"/>
<path d="M665.339 860.865V463.496L665.338 359.137H924.899V463.496H783.077V860.865H665.339Z" fill="white"/>
<path d="M496.686 909.76H784.005V1029.4H571.385C530.13 1029.4 496.686 995.959 496.686 954.704V909.76Z" fill="url(#paint1_linear_4009_423)"/>
<path d="M925.023 310.24L355.664 310.24L355.664 190.596L850.324 190.596C891.579 190.596 925.023 224.041 925.023 265.296L925.023 310.24Z" fill="url(#paint2_linear_4009_423)"/>
</g>
<defs>
<filter id="filter0_d_4009_423" x="0" y="0" width="1280" height="1280" filterUnits="userSpaceOnUse" color-interpolation-filters="sRGB">
<feFlood flood-opacity="0" result="BackgroundImageFix"/>
<feColorMatrix in="SourceAlpha" type="matrix" values="0 0 0 0 0 0 0 0 0 0 0 0 0 0 0 0 0 0 127 0" result="hardAlpha"/>
<feOffset dy="30"/>
<feGaussianBlur stdDeviation="50"/>
<feComposite in2="hardAlpha" operator="out"/>
<feColorMatrix type="matrix" values="0 0 0 0 0 0 0 0 0 0 0 0 0 0 0 0 0 0 0.25 0"/>
<feBlend mode="normal" in2="BackgroundImageFix" result="effect1_dropShadow_4009_423"/>
<feBlend mode="normal" in="SourceGraphic" in2="effect1_dropShadow_4009_423" result="shape"/>
</filter>
<linearGradient id="paint0_linear_4009_423" x1="640.001" y1="70" x2="640.001" y2="1150" gradientUnits="userSpaceOnUse">
<stop stop-color="#FF6A00"/>
<stop offset="1" stop-color="#9301BB"/>
</linearGradient>
<linearGradient id="paint1_linear_4009_423" x1="496.686" y1="969.582" x2="784.005" y2="969.582" gradientUnits="userSpaceOnUse">
<stop stop-color="white"/>
<stop offset="1" stop-color="white" stop-opacity="0"/>
</linearGradient>
<linearGradient id="paint2_linear_4009_423" x1="925.023" y1="250.418" x2="355.664" y2="250.418" gradientUnits="userSpaceOnUse">
<stop stop-color="white"/>
<stop offset="1" stop-color="white" stop-opacity="0"/>
</linearGradient>
</defs>
</svg>
